<svg width="50" height="63" viewBox="0 0 50 63" fill="none" xmlns="http://www.w3.org/2000/svg">
<path d="M25 62.5C17.7604 60.6771 11.7844 56.5229 7.07188 50.0375C2.35729 43.5542 0 36.3542 0 28.4375V9.375L25 0L50 9.375V28.4375C50 36.3542 47.6438 43.5542 42.9313 50.0375C38.2167 56.5229 32.2396 60.6771 25 62.5ZM25 55.9375C30.0521 54.375 34.2708 51.2896 37.6562 46.6812C41.0417 42.0708 43.0208 36.9271 43.5938 31.25H25V6.64062L6.25 13.6719V29.8438C6.25 30.2083 6.30208 30.6771 6.40625 31.25H25V55.9375Z" fill="#6ECCAF"/>
</svg>
